<svg width="108" height="86" viewBox="0 0 108 86" fill="none" xmlns="http://www.w3.org/2000/svg">
<circle cx="54" cy="39" r="22" fill="#FFC034"/>
<path d="M57.6221 48.5844L48.3041 39.2757C48.1935 39.1649 48.1154 39.0449 48.0697 38.9156C48.0232 38.7863 48 38.6478 48 38.5C48 38.3522 48.0232 38.2137 48.0697 38.0844C48.1154 37.9551 48.1935 37.8351 48.3041 37.7243L57.6221 28.3879C57.8802 28.1293 58.2028 28 58.5899 28C58.977 28 59.3088 28.1385 59.5853 28.4156C59.8618 28.6926 60 29.0158 60 29.3852C60 29.7546 59.8618 30.0778 59.5853 30.3549L51.4562 38.5L59.5853 46.6451C59.8433 46.9037 59.9724 47.2221 59.9724 47.6004C59.9724 47.9794 59.8341 48.3074 59.5576 48.5844C59.2811 48.8615 58.9585 49 58.5899 49C58.2212 49 57.8986 48.8615 57.6221 48.5844Z" fill="white"/>
</svg>
