<svg width="108" height="86" viewBox="0 0 108 86" fill="none" xmlns="http://www.w3.org/2000/svg">
<circle cx="54" cy="39" r="22" fill="#FFC034"/>
<path d="M50.3779 28.4156L59.6959 37.7243C59.8065 37.8351 59.8846 37.9551 59.9303 38.0844C59.9768 38.2137 60 38.3522 60 38.5C60 38.6478 59.9768 38.7863 59.9303 38.9156C59.8846 39.0449 59.8065 39.1649 59.6959 39.2757L50.3779 48.6121C50.1198 48.8707 49.7972 49 49.4101 49C49.023 49 48.6912 48.8615 48.4147 48.5844C48.1382 48.3074 48 47.9842 48 47.6148C48 47.2454 48.1382 46.9222 48.4147 46.6451L56.5438 38.5L48.4147 30.3549C48.1567 30.0963 48.0276 29.7779 48.0276 29.3996C48.0276 29.0206 48.1659 28.6926 48.4424 28.4156C48.7189 28.1385 49.0415 28 49.4101 28C49.7788 28 50.1014 28.1385 50.3779 28.4156Z" fill="white"/>
</svg>
