<svg width="48" height="48" viewBox="0 0 48 48" fill="none" xmlns="http://www.w3.org/2000/svg">
<rect width="48" height="48" fill="white"/>
<path d="M35.4684 12.5498C35.3 12.381 35.1 12.2472 34.8797 12.1558C34.6595 12.0645 34.4235 12.0174 34.185 12.0174C33.9466 12.0174 33.7106 12.0645 33.4903 12.1558C33.2701 12.2472 33.0701 12.381 32.9017 12.5498L24 21.4333L15.0983 12.5316C14.9298 12.3631 14.7297 12.2294 14.5095 12.1382C14.2893 12.0469 14.0533 12 13.815 12C13.5766 12 13.3406 12.0469 13.1204 12.1382C12.9002 12.2294 12.7001 12.3631 12.5316 12.5316C12.3631 12.7001 12.2294 12.9002 12.1382 13.1204C12.0469 13.3406 12 13.5766 12 13.815C12 14.0533 12.0469 14.2893 12.1382 14.5095C12.2294 14.7297 12.3631 14.9298 12.5316 15.0983L21.4333 24L12.5316 32.9017C12.3631 33.0702 12.2294 33.2703 12.1382 33.4905C12.0469 33.7107 12 33.9467 12 34.185C12 34.4234 12.0469 34.6594 12.1382 34.8796C12.2294 35.0998 12.3631 35.2999 12.5316 35.4684C12.7001 35.6369 12.9002 35.7706 13.1204 35.8618C13.3406 35.9531 13.5766 36 13.815 36C14.0533 36 14.2893 35.9531 14.5095 35.8618C14.7297 35.7706 14.9298 35.6369 15.0983 35.4684L24 26.5667L32.9017 35.4684C33.0702 35.6369 33.2703 35.7706 33.4905 35.8618C33.7107 35.9531 33.9467 36 34.185 36C34.4234 36 34.6594 35.9531 34.8796 35.8618C35.0998 35.7706 35.2999 35.6369 35.4684 35.4684C35.6369 35.2999 35.7706 35.0998 35.8618 34.8796C35.9531 34.6594 36 34.4234 36 34.185C36 33.9467 35.9531 33.7107 35.8618 33.4905C35.7706 33.2703 35.6369 33.0702 35.4684 32.9017L26.5667 24L35.4684 15.0983C36.1602 14.4066 36.1602 13.2415 35.4684 12.5498Z" fill="black"/>
</svg>
